<?xml version="1.0"?>
<svg xmlns="http://www.w3.org/2000/svg" xmlns:xlink="http://www.w3.org/1999/xlink" version="1.1" id="Capa_1" x="0px" y="0px" viewBox="0 0 512 512" style="enable-background:new 0 0 512 512;" xml:space="preserve" width="512px" height="512px" class=""><g><g>
	<g>
		<path d="M503.467,102.4H8.533c-4.71,0-8.533,3.814-8.533,8.533v364.8C0,495.736,16.273,512,36.267,512h439.467    C495.727,512,512,495.736,512,475.733v-364.8C512,106.214,508.177,102.4,503.467,102.4z M494.933,475.733    c0,10.581-8.61,19.2-19.2,19.2H36.267c-10.59,0-19.2-8.619-19.2-19.2V119.467h477.867V475.733z" data-original="#000000" class="active-path" data-old_color="#000000" fill="#FFFFFF"/>
	</g>
</g><g>
	<g>
		<path d="M281.6,145.067h-51.2c-4.71,0-8.533,3.814-8.533,8.533v51.2c0,4.719,3.823,8.533,8.533,8.533h51.2    c4.71,0,8.533-3.814,8.533-8.533v-51.2C290.133,148.881,286.31,145.067,281.6,145.067z M273.067,196.267h-34.133v-34.133h34.133    V196.267z" data-original="#000000" class="active-path" data-old_color="#000000" fill="#FFFFFF"/>
	</g>
</g><g>
	<g>
		<path d="M366.933,145.067h-51.2c-4.71,0-8.533,3.814-8.533,8.533v51.2c0,4.719,3.823,8.533,8.533,8.533h51.2    c4.71,0,8.533-3.814,8.533-8.533v-51.2C375.467,148.881,371.644,145.067,366.933,145.067z M358.4,196.267h-34.133v-34.133H358.4    V196.267z" data-original="#000000" class="active-path" data-old_color="#000000" fill="#FFFFFF"/>
	</g>
</g><g>
	<g>
		<path d="M452.267,145.067h-51.2c-4.71,0-8.533,3.814-8.533,8.533v51.2c0,4.719,3.823,8.533,8.533,8.533h51.2    c4.71,0,8.533-3.814,8.533-8.533v-51.2C460.8,148.881,456.977,145.067,452.267,145.067z M443.733,196.267H409.6v-34.133h34.133    V196.267z" data-original="#000000" class="active-path" data-old_color="#000000" fill="#FFFFFF"/>
	</g>
</g><g>
	<g>
		<path d="M110.933,230.4h-51.2c-4.71,0-8.533,3.814-8.533,8.533v51.2c0,4.719,3.823,8.533,8.533,8.533h51.2    c4.71,0,8.533-3.814,8.533-8.533v-51.2C119.467,234.214,115.644,230.4,110.933,230.4z M102.4,281.6H68.267v-34.133H102.4V281.6z" data-original="#000000" class="active-path" data-old_color="#000000" fill="#FFFFFF"/>
	</g>
</g><g>
	<g>
		<path d="M196.267,230.4h-51.2c-4.71,0-8.533,3.814-8.533,8.533v51.2c0,4.719,3.823,8.533,8.533,8.533h51.2    c4.71,0,8.533-3.814,8.533-8.533v-51.2C204.8,234.214,200.977,230.4,196.267,230.4z M187.733,281.6H153.6v-34.133h34.133V281.6z" data-original="#000000" class="active-path" data-old_color="#000000" fill="#FFFFFF"/>
	</g>
</g><g>
	<g>
		<path d="M281.6,230.4h-51.2c-4.71,0-8.533,3.814-8.533,8.533v51.2c0,4.719,3.823,8.533,8.533,8.533h51.2    c4.71,0,8.533-3.814,8.533-8.533v-51.2C290.133,234.214,286.31,230.4,281.6,230.4z M273.067,281.6h-34.133v-34.133h34.133V281.6z" data-original="#000000" class="active-path" data-old_color="#000000" fill="#FFFFFF"/>
	</g>
</g><g>
	<g>
		<path d="M366.933,230.4h-51.2c-4.71,0-8.533,3.814-8.533,8.533v51.2c0,4.719,3.823,8.533,8.533,8.533h51.2    c4.71,0,8.533-3.814,8.533-8.533v-51.2C375.467,234.214,371.644,230.4,366.933,230.4z M358.4,281.6h-34.133v-34.133H358.4V281.6z" data-original="#000000" class="active-path" data-old_color="#000000" fill="#FFFFFF"/>
	</g>
</g><g>
	<g>
		<path d="M452.267,230.4h-51.2c-4.71,0-8.533,3.814-8.533,8.533v51.2c0,4.719,3.823,8.533,8.533,8.533h51.2    c4.71,0,8.533-3.814,8.533-8.533v-51.2C460.8,234.214,456.977,230.4,452.267,230.4z M443.733,281.6H409.6v-34.133h34.133V281.6z" data-original="#000000" class="active-path" data-old_color="#000000" fill="#FFFFFF"/>
	</g>
</g><g>
	<g>
		<path d="M110.933,315.733h-51.2c-4.71,0-8.533,3.814-8.533,8.533v51.2c0,4.719,3.823,8.533,8.533,8.533h51.2    c4.71,0,8.533-3.814,8.533-8.533v-51.2C119.467,319.548,115.644,315.733,110.933,315.733z M102.4,366.933H68.267V332.8H102.4    V366.933z" data-original="#000000" class="active-path" data-old_color="#000000" fill="#FFFFFF"/>
	</g>
</g><g>
	<g>
		<path d="M196.267,315.733h-51.2c-4.71,0-8.533,3.814-8.533,8.533v51.2c0,4.719,3.823,8.533,8.533,8.533h51.2    c4.71,0,8.533-3.814,8.533-8.533v-51.2C204.8,319.548,200.977,315.733,196.267,315.733z M187.733,366.933H153.6V332.8h34.133    V366.933z" data-original="#000000" class="active-path" data-old_color="#000000" fill="#FFFFFF"/>
	</g>
</g><g>
	<g>
		<path d="M281.6,315.733h-51.2c-4.71,0-8.533,3.814-8.533,8.533v51.2c0,4.719,3.823,8.533,8.533,8.533h51.2    c4.71,0,8.533-3.814,8.533-8.533v-51.2C290.133,319.548,286.31,315.733,281.6,315.733z M273.067,366.933h-34.133V332.8h34.133    V366.933z" data-original="#000000" class="active-path" data-old_color="#000000" fill="#FFFFFF"/>
	</g>
</g><g>
	<g>
		<path d="M366.933,315.733h-51.2c-4.71,0-8.533,3.814-8.533,8.533v51.2c0,4.719,3.823,8.533,8.533,8.533h51.2    c4.71,0,8.533-3.814,8.533-8.533v-51.2C375.467,319.548,371.644,315.733,366.933,315.733z M358.4,366.933h-34.133V332.8H358.4    V366.933z" data-original="#000000" class="active-path" data-old_color="#000000" fill="#FFFFFF"/>
	</g>
</g><g>
	<g>
		<path d="M452.267,315.733h-51.2c-4.71,0-8.533,3.814-8.533,8.533v51.2c0,4.719,3.823,8.533,8.533,8.533h51.2    c4.71,0,8.533-3.814,8.533-8.533v-51.2C460.8,319.548,456.977,315.733,452.267,315.733z M443.733,366.933H409.6V332.8h34.133    V366.933z" data-original="#000000" class="active-path" data-old_color="#000000" fill="#FFFFFF"/>
	</g>
</g><g>
	<g>
		<path d="M110.933,401.067h-51.2c-4.71,0-8.533,3.814-8.533,8.533v51.2c0,4.719,3.823,8.533,8.533,8.533h51.2    c4.71,0,8.533-3.814,8.533-8.533v-51.2C119.467,404.881,115.644,401.067,110.933,401.067z M102.4,452.267H68.267v-34.133H102.4    V452.267z" data-original="#000000" class="active-path" data-old_color="#000000" fill="#FFFFFF"/>
	</g>
</g><g>
	<g>
		<path d="M196.267,401.067h-51.2c-4.71,0-8.533,3.814-8.533,8.533v51.2c0,4.719,3.823,8.533,8.533,8.533h51.2    c4.71,0,8.533-3.814,8.533-8.533v-51.2C204.8,404.881,200.977,401.067,196.267,401.067z M187.733,452.267H153.6v-34.133h34.133    V452.267z" data-original="#000000" class="active-path" data-old_color="#000000" fill="#FFFFFF"/>
	</g>
</g><g>
	<g>
		<path d="M281.6,401.067h-51.2c-4.71,0-8.533,3.814-8.533,8.533v51.2c0,4.719,3.823,8.533,8.533,8.533h51.2    c4.71,0,8.533-3.814,8.533-8.533v-51.2C290.133,404.881,286.31,401.067,281.6,401.067z M273.067,452.267h-34.133v-34.133h34.133    V452.267z" data-original="#000000" class="active-path" data-old_color="#000000" fill="#FFFFFF"/>
	</g>
</g><g>
	<g>
		<path d="M366.933,401.067h-51.2c-4.71,0-8.533,3.814-8.533,8.533v51.2c0,4.719,3.823,8.533,8.533,8.533h51.2    c4.71,0,8.533-3.814,8.533-8.533v-51.2C375.467,404.881,371.644,401.067,366.933,401.067z M358.4,452.267h-34.133v-34.133H358.4    V452.267z" data-original="#000000" class="active-path" data-old_color="#000000" fill="#FFFFFF"/>
	</g>
</g><g>
	<g>
		<path d="M102.4,0H59.733C55.023,0,51.2,3.814,51.2,8.533V76.8c0,4.719,3.823,8.533,8.533,8.533H102.4    c4.71,0,8.533-3.814,8.533-8.533V8.533C110.933,3.814,107.11,0,102.4,0z M93.867,68.267h-25.6v-51.2h25.6V68.267z" data-original="#000000" class="active-path" data-old_color="#000000" fill="#FFFFFF"/>
	</g>
</g><g>
	<g>
		<path d="M452.267,0H409.6c-4.71,0-8.533,3.814-8.533,8.533V76.8c0,4.719,3.823,8.533,8.533,8.533h42.667    c4.71,0,8.533-3.814,8.533-8.533V8.533C460.8,3.814,456.977,0,452.267,0z M443.733,68.267h-25.6v-51.2h25.6V68.267z" data-original="#000000" class="active-path" data-old_color="#000000" fill="#FFFFFF"/>
	</g>
</g><g>
	<g>
		<path d="M475.733,34.133h-23.467c-4.71,0-8.533,3.814-8.533,8.533v25.6h-25.6v-25.6c0-4.719-3.823-8.533-8.533-8.533H102.4    c-4.71,0-8.533,3.814-8.533,8.533v25.6h-25.6v-25.6c0-4.719-3.823-8.533-8.533-8.533H36.267C16.273,34.133,0,50.398,0,70.4v40.533    c0,4.719,3.823,8.533,8.533,8.533h494.933c4.71,0,8.533-3.814,8.533-8.533V70.4C512,50.398,495.727,34.133,475.733,34.133z     M494.933,102.4H17.067v-32c0-10.581,8.61-19.2,19.2-19.2H51.2v25.6c0,4.719,3.823,8.533,8.533,8.533H102.4    c4.71,0,8.533-3.814,8.533-8.533V51.2h290.133v25.6c0,4.719,3.823,8.533,8.533,8.533h42.667c4.71,0,8.533-3.814,8.533-8.533V51.2    h14.933c10.59,0,19.2,8.619,19.2,19.2V102.4z" data-original="#000000" class="active-path" data-old_color="#000000" fill="#FFFFFF"/>
	</g>
</g></g> </svg>
