<?xml version="1.0" encoding="iso-8859-1"?>
<!-- Generator: Adobe Illustrator 19.0.0, SVG Export Plug-In . SVG Version: 6.00 Build 0)  -->
<svg version="1.1" id="Capa_1" xmlns="http://www.w3.org/2000/svg" xmlns:xlink="http://www.w3.org/1999/xlink" x="0px" y="0px"
	 viewBox="0 0 507.312 507.312" style="enable-background:new 0 0 507.312 507.312;" xml:space="preserve">
<g>
	<g>
		<g>
			<rect x="66.344" y="416" width="32" height="32"/>
			<rect x="2.344" y="416" width="32" height="32"/>
			<polygon points="429.656,356.688 407.032,379.312 443.72,416 130.344,416 130.344,448 443.72,448 407.032,484.688 
				429.656,507.312 504.968,432 			"/>
			<path d="M162.344,256h32v128h32V32h64v352h32V32h64V0h-224c-70.692,0-128,57.308-128,128S91.652,256,162.344,256z M162.344,32h32
				v192h-32c-53.019,0-96-42.981-96-96S109.325,32,162.344,32z"/>
		</g>
	</g>
</g>
<g>
</g>
<g>
</g>
<g>
</g>
<g>
</g>
<g>
</g>
<g>
</g>
<g>
</g>
<g>
</g>
<g>
</g>
<g>
</g>
<g>
</g>
<g>
</g>
<g>
</g>
<g>
</g>
<g>
</g>
</svg>
