<?xml version="1.0"?>
<svg xmlns="http://www.w3.org/2000/svg" xmlns:xlink="http://www.w3.org/1999/xlink" version="1.1" id="Capa_1" x="0px" y="0px" viewBox="0 0 511.999 511.999" style="enable-background:new 0 0 511.999 511.999;" xml:space="preserve" width="512px" height="512px"><g><g>
	<g>
		<path d="M485.907,169.998v-18.997c0-24.813-20.587-44.999-45.399-44.999H231.21l-55.606-55.605    c-2.813-2.813-6.628-4.394-10.606-4.394H44.999C20.187,46.003,0,66.189,0,91.002v329.995c0,24.813,20.187,44.999,44.999,44.999    c13.561,0,384.176,0,398.658,0c22.962,0,42.188-17.209,44.724-40.03l20.38-183.418c0.001-0.008,0.002-0.016,0.003-0.024    l2.95-26.554C513.868,196.588,503.692,178.03,485.907,169.998z M61.573,435.997H44.999c-8.271,0-15-6.729-15-15V91.002    c0-8.271,6.729-15,15-15h113.785l55.606,55.605c2.813,2.813,6.628,4.394,10.606,4.394h215.511c8.271,0,15.6,6.729,15.6,15v15    H131.849c-22.962,0-42.188,17.209-44.724,40.03C86.136,214.93,63.493,418.714,61.573,435.997z M458.565,422.654    c-0.845,7.607-7.254,13.343-14.908,13.343H91.758l20-179.998h365.325L458.565,422.654z M481.898,212.657L480.415,226H115.09    l1.851-16.657c0.845-7.607,7.254-13.343,14.908-13.343h335.141C475.937,196.001,482.888,203.745,481.898,212.657z" data-original="#000000" class="active-path" data-old_color="#000000" fill="#FFFFFF"/>
	</g>
</g></g> </svg>
